<svg xmlns:dc="http://purl.org/dc/elements/1.1/" xmlns:cc="http://creativecommons.org/ns#" xmlns:rdf="http://www.w3.org/1999/02/22-rdf-syntax-ns#" xmlns:svg="http://www.w3.org/2000/svg" xmlns="http://www.w3.org/2000/svg" xmlns:sodipodi="http://sodipodi.sourceforge.net/DTD/sodipodi-0.dtd" xmlns:inkscape="http://www.inkscape.org/namespaces/inkscape" id="svg3887" width="747.48895" height="903.40564" viewBox="0 0 747.48895 903.40563" sodipodi:docname="Logo.svg" inkscape:version="0.92.4 (5da689c313, 2019-01-14)"><metadata></metadata><defs id="defs3891"></defs><g inkscape:groupmode="layer" id="layer20" inkscape:label="Logo" style="display:inline" transform="translate(-399.68282,4.1064612)"><g id="g4817" transform="matrix(4.1528433,0,0,4.1528433,-1261.4611,-1172.9534)"><path inkscape:connector-curvature="0" id="path3906" d="m 503.99219,396.99609 v 23 l -56.9961,-30 0.006,16.99828 56.99803,30.00172 v 22.99814 L 446.99231,429.00781 V 447 l 57.0039,29.99219 v 22.0039 L 400.00159,442.00168 V 341.99609 Z" style="display:inline;fill:#dd542e;fill-opacity:1;stroke:#000000;stroke-width:0;stroke-linecap:butt;stroke-linejoin:miter;stroke-miterlimit:4;stroke-dasharray:none;stroke-opacity:1"></path><path inkscape:connector-curvature="0" id="path4719" d="M 400.00159,341.99609 477.5,281.45703 l 44,23.01172 -20.00661,18.05398 56.49672,30.47188 -32.99647,27.00264 -55.51893,-30.51608 -21.44737,17.8782 z" style="display:inline;fill:#fbb039;fill-opacity:1;stroke:#000000;stroke-width:0;stroke-linecap:butt;stroke-linejoin:miter;stroke-miterlimit:4;stroke-dasharray:none;stroke-opacity:1"></path><path inkscape:connector-curvature="0" id="path4717" d="m 458.87109,373.08984 11.125,-9.08984 45,24 -11.0039,8.99609 z" style="display:inline;fill:#fbb039;fill-opacity:1;stroke:#000000;stroke-width:0;stroke-linecap:butt;stroke-linejoin:miter;stroke-miterlimit:4;stroke-dasharray:none;stroke-opacity:1"></path><path inkscape:connector-curvature="0" id="path4770" d="m 549.23437,426.23438 18.75782,-15.23492 v 33.99663 L 558,440.09766 v -8.10157 z" style="display:inline;fill:#7d797e;fill-opacity:1;stroke:#000000;stroke-width:0;stroke-linecap:butt;stroke-linejoin:miter;stroke-miterlimit:4;stroke-dasharray:none;stroke-opacity:1"></path><path inkscape:connector-curvature="0" id="path4768" d="m 514.98437,454 34.25,-27.76562 8.76563,5.76171 -33.00391,27.9961 z" style="fill:#3a3839;fill-opacity:1;stroke:#000000;stroke-width:0;stroke-linecap:butt;stroke-linejoin:miter;stroke-miterlimit:4;stroke-dasharray:none;stroke-opacity:1"></path><path inkscape:connector-curvature="0" id="path4765" d="m 524.99609,481 -10.01172,-4.98437 V 454 l 10.01172,5.99219 z" style="fill:#7d797e;fill-opacity:1;stroke:#000000;stroke-width:0;stroke-linecap:butt;stroke-linejoin:miter;stroke-miterlimit:4;stroke-dasharray:none;stroke-opacity:1"></path><path inkscape:connector-curvature="0" id="path4762" d="m 521.5,304.46875 v 28.83984 l -20.00661,-10.78586 z" style="display:inline;fill:#3a3839;fill-opacity:1;stroke:#000000;stroke-width:0;stroke-linecap:butt;stroke-linejoin:miter;stroke-miterlimit:4;stroke-dasharray:none;stroke-opacity:1"></path><path inkscape:connector-curvature="0" id="path4757" d="m 558.16137,397.16116 9.83472,-8.16507 v -44.00062 l -45,-24.99938 v 14.11656 l 34.99402,18.88196 0.006,31.00539 -8.42578,6.89062 z" style="display:inline;fill:#7d797e;fill-opacity:1;stroke:#000000;stroke-width:0;stroke-linecap:butt;stroke-linejoin:miter;stroke-miterlimit:4;stroke-dasharray:none;stroke-opacity:1"></path><path inkscape:connector-curvature="0" id="path4754" d="m 514.99609,405.99447 v 26.99381 l 43.16528,-35.82712 -8.59106,-6.27054 L 524.99364,411 Z" style="fill:#3a3839;fill-opacity:1;stroke:#000000;stroke-width:0;stroke-linecap:butt;stroke-linejoin:miter;stroke-miterlimit:4;stroke-dasharray:none;stroke-opacity:1"></path><path inkscape:connector-curvature="0" id="path4751" d="m 469.99609,364 45,24 v 17.99447 L 524.99364,411 v -31.00275 l -55.51893,-30.51608 z" style="display:inline;fill:#7d797e;fill-opacity:1;stroke:#000000;stroke-width:0;stroke-linecap:butt;stroke-linejoin:miter;stroke-miterlimit:4;stroke-dasharray:none;stroke-opacity:1"></path><path inkscape:connector-curvature="0" id="path4748" d="m 458.87109,373.08984 11.125,-9.08984 -0.52138,-14.51883 -21.44737,17.8782 z" style="fill:#3a3839;fill-opacity:1;stroke:#000000;stroke-width:0;stroke-linecap:butt;stroke-linejoin:miter;stroke-miterlimit:4;stroke-dasharray:none;stroke-opacity:1"></path><path inkscape:connector-curvature="0" id="path4745" d="m 453,432.27344 51.00012,27.72079 -0.0236,9.98233 L 453,443 Z" style="display:inline;fill:#7d797e;fill-opacity:1;stroke:#000000;stroke-width:0;stroke-linecap:butt;stroke-linejoin:miter;stroke-miterlimit:4;stroke-dasharray:none;stroke-opacity:1"></path><path inkscape:connector-curvature="0" id="path4742" d="m 453,393.14844 50.99219,26.84765 -0.002,11.00124 L 453,404.00021 Z" style="display:inline;fill:#7d797e;fill-opacity:1;stroke:#000000;stroke-width:0;stroke-linecap:butt;stroke-linejoin:miter;stroke-miterlimit:4;stroke-dasharray:none;stroke-opacity:1"></path><path inkscape:connector-curvature="0" id="path4737" d="M 446.99609,389.99609 453,393.14844 v 10.85177 l 50.99036,26.99712 0.01,5.99876 -56.99803,-30.00172 z" style="display:inline;fill:#3a3839;fill-opacity:1;stroke:#000000;stroke-width:0;stroke-linecap:butt;stroke-linejoin:miter;stroke-miterlimit:4;stroke-dasharray:none;stroke-opacity:1"></path><path inkscape:connector-curvature="0" id="path4735" d="M 446.99231,429.00781 453,432.27344 V 443 l 50.97656,26.97656 0.0197,7.01563 L 446.99231,447 Z" style="display:inline;fill:#3a3839;fill-opacity:1;stroke:#000000;stroke-width:0;stroke-linecap:butt;stroke-linejoin:miter;stroke-miterlimit:4;stroke-dasharray:none;stroke-opacity:1"></path><path inkscape:connector-curvature="0" id="path4732" d="M 524.99609,459.99219 V 481 L 558,453.99609 v -22 z" style="display:inline;fill:#f47e37;fill-opacity:1;stroke:#000000;stroke-width:0;stroke-linecap:butt;stroke-linejoin:miter;stroke-miterlimit:4;stroke-dasharray:none;stroke-opacity:1"></path><path inkscape:connector-curvature="0" id="path4729" d="M 524.99364,379.99725 V 411 l 33.00245,-27 -0.006,-31.00539 z" style="display:inline;fill:#f47e37;fill-opacity:1;stroke:#000000;stroke-width:0;stroke-linecap:butt;stroke-linejoin:miter;stroke-miterlimit:4;stroke-dasharray:none;stroke-opacity:1"></path><path inkscape:connector-curvature="0" id="path4724" d="m 567.99609,344.99547 -45,-24.99938 L 533.5,310.48437 579.99609,335 Z" style="display:inline;fill:#fbb039;fill-opacity:1;stroke:#000000;stroke-width:0;stroke-linecap:butt;stroke-linejoin:miter;stroke-miterlimit:4;stroke-dasharray:none;stroke-opacity:1"></path><path inkscape:connector-curvature="0" id="path4714" d="M 503.99219,396.99609 514.99609,388 v 44.98828 l 53,-43.99219 v -44.00062 l 12,-9.99547 v 101 l -12.0039,8.99609 V 410.99946 L 514.98437,454 v 35.99655 l -10.98816,8.99954 z" style="display:inline;fill:#f47e37;fill-opacity:1;stroke:#000000;stroke-width:0;stroke-linecap:butt;stroke-linejoin:miter;stroke-miterlimit:4;stroke-dasharray:none;stroke-opacity:1"></path></g></g></svg>